<?xml version="1.0" encoding="UTF-8"?>
<svg viewBox="0 0 400 400" xmlns="http://www.w3.org/2000/svg" xmlns:xlink="http://www.w3.org/1999/xlink">
 <defs>
  <filter id="f">
   <feGaussianBlur stdDeviation="4.0641"/>
  </filter>
  <linearGradient id="a">
   <stop stop-color="#e9e9e9" offset="0"/>
   <stop stop-color="#bbb" offset=".0469"/>
   <stop stop-color="#aea6a6" offset=".75"/>
   <stop stop-color="#d6d2d2" offset=".875"/>
   <stop stop-color="#a6a2a2" offset=".9054"/>
   <stop stop-color="#fff7f7" offset=".9498"/>
   <stop stop-color="#978b8b" offset=".9876"/>
   <stop stop-color="#d6d2d2" offset="1"/>
  </linearGradient>
  <linearGradient id="b" x1="3372.9" x2="3861.5" y1="-1588" y2="-1241.8" gradientUnits="userSpaceOnUse">
   <stop stop-color="#555" offset="0"/>
   <stop stop-color="#8e8e8e" stop-opacity=".5804" offset=".5"/>
   <stop stop-color="#555" stop-opacity=".3235" offset="1"/>
  </linearGradient>
  <linearGradient id="e" x1="291.21" x2="366.03" y1="952.97" y2="934.17" gradientUnits="userSpaceOnUse">
   <stop offset="0"/>
   <stop stop-opacity="0" offset="1"/>
  </linearGradient>
  <linearGradient id="d" x1="307.39" x2="202.68" y1="867.1" y2="703.14" gradientUnits="userSpaceOnUse" xlink:href="#a"/>
  <linearGradient id="c" x1="364.16" x2="233.6" y1="771.34" y2="815.74" gradientUnits="userSpaceOnUse" xlink:href="#a"/>
 </defs>
 <g transform="translate(0 -652.36)">
  <g transform="translate(504.87 -70.711)">
   <path d="m-492.52 885.98h199.97v199.48h-199.97z" fill="#fff" stroke="#fff" stroke-linejoin="round" stroke-width=".5042"/>
   <path d="m-471.09 1080.4h-16.173v-32.346h32.346v32.346h-16.173zm0-4.6208h11.552v-23.104h-23.104v23.104h11.552zm0-4.6209h-6.9313v-13.863h13.863v13.863h-6.9313zm32.346 9.2417h-11.552v-18.484h4.6209v-4.6208h4.6209v-13.863h-4.6209v4.6209h-4.6209v-4.6209h-13.863v-4.6208h-4.6209v-4.6209h-9.2418v-4.6209h9.2418v4.6209h4.6209v4.6209h13.863v-4.6209h-9.2417v-4.6209h9.2417v4.6209h4.6209v-18.484h-4.6209v9.2418h-9.2417v-4.6209h-4.6209v4.6209h-4.6209v-9.2418h9.2418v-4.6209h-9.2418v-4.6209h-4.6209v-9.2417h4.6209v-4.6209h-9.2418v4.6209h-4.6209v4.6209h4.6209v4.6208h-4.6209v4.6209h-4.6209v-46.209h4.6209v4.6209h4.6209v-9.2418h-9.2418v-13.863h9.2418v4.6209h-4.6209v4.6208h9.2418v-4.6208h4.6209v4.6208h4.6209v4.6209h4.6209v-4.6209h4.6209v-4.6208h-9.2418v-4.6209h-9.2418v-4.6209h4.6209v-4.6208h-4.6209v-4.6209h-13.863v-4.6209h18.484v9.2418h4.6209v-4.6209h4.6209v-4.6209h4.6209v4.6209h4.6209v-4.6209h4.6209v-4.6209h-4.6209v-4.6209h4.6209v4.6209h4.6209v-9.2417h4.6209v-4.6209h-4.6209v-4.6209h-4.6209v9.2418h-4.6209v-13.863h9.2418v-4.6209h-9.2418v-4.6208h9.2418v4.6208h4.6209v-4.6208h4.6209v4.6208h4.6209v-4.6208h4.6209v9.2417h-4.6209v4.6209h-4.6209v9.2418h9.2418v-9.2418h9.2418v-4.6209h9.2418v-4.6209h-4.6209v-4.6208h13.863v4.6208h4.6209v-4.6208h4.6209v4.6208h-4.6209v4.6209h-4.6209v-4.6209h-4.6209v4.6209h-4.6209v4.6209h-4.6209v4.6209h4.6209v4.6209h-4.6209v-4.6209h-9.2418v4.6209h-4.6209v4.6209h4.6209v9.2418h-4.6209v-9.2418h-4.6209v9.2418h-4.6209v13.863h9.2418v-4.6208h4.6209v9.2418h4.6209v-4.6209h4.6209v-4.6208h4.6209v-4.6209h-9.2418v-4.6209h4.6209v-4.6209h-4.6209v-4.6209h4.6209v4.6209h4.6209v-4.6209h4.6209v-4.6209h4.6209v-4.6209h-4.6209v-4.6209h4.6209v4.6209h4.6209v4.6209h-4.6209v4.6209h4.6209v9.2418h9.2418v-4.6209h-4.6209v-9.2417h4.6209v9.2417h4.6209v-4.6209h4.6209v-4.6209h4.6209v-4.6209h-9.2418v-4.6209h4.6209v-4.6209h4.6209v-4.6209h4.6209v4.6209h-4.6209v9.2418h4.6209v-4.6209h4.6209v-4.6209h4.6209v-4.6209h-4.6209v-4.6208h4.6209v4.6208h4.6209v-4.6208h4.6209v4.6208h-4.6209v4.6209h-4.6209v4.6209h13.863v-4.6209h4.6209v4.6209h-4.6209v4.6209h4.6209v4.6209h-4.6209v4.6209h4.6209v9.2418h4.6209v4.6209h4.6209v4.6209h4.6209v-9.2418h13.863v4.6209h4.6209v-4.6209h4.6209v9.2418h-9.2418v4.6208h-4.6209v4.6209h9.2418v-4.6209h4.6209v4.6209h-4.6209v4.6209h4.6209v9.2417h-4.6209v4.6209h-4.6209v-4.6209h4.6209v-9.2417h-4.6209v4.6208h-4.6209v4.6209h-4.6209v9.2418h4.6209v4.6208h-4.6209v9.2418h4.6209v-4.6209h4.6209v-4.6209h4.6209v4.6209h-4.6209v9.2418h4.6209v-4.6209h4.6209v9.2417h-9.2418v4.6209h-4.6209v4.6209h4.6209v4.6208h-4.6209v9.2418h-4.6209v9.2418h4.6209v4.6208h-4.6209v4.6209h-4.6209v4.6209h9.2417v-4.6209h4.6209v-4.6209h4.6209v4.6209h4.6209v13.863h-9.2418v4.6209h-4.6209v4.6209h13.863v13.863h-4.6209v9.2417h-4.6209v-13.863h-4.6209v4.6209h-4.6209v9.2417h-4.6209v-9.2417h4.6209v-4.6209h-9.2418v9.2418h-9.2418v4.6208h-9.2418v-4.6208h-4.6209v4.6208h-4.6209v-4.6208h4.6209v-4.6209h-4.6209v-4.6209h-4.6209v-9.2417h-4.6209v-4.6209h-4.6209v9.2417h4.6209v4.6209h-4.6209v4.6209h-4.6209v4.6209h9.2418v-4.6209h4.6209v9.2417h-13.863v-4.6208h-4.6209v4.6208h-9.2418v-4.6208h-9.2417v4.6208h-9.2418v-9.2417h4.6209v-13.863h4.6209v-4.6209h4.6209v9.2417h4.6209v4.6209h-4.6209v4.6209h4.6209v4.6209h9.2418v-4.6209h4.6209v-4.6209h4.6209v-4.6209h-9.2418v-4.6208h4.6209v-4.6209h4.6209v-4.6209h4.6209v4.6209h9.2417v-4.6209h4.6209v4.6209h-4.6209v4.6209h9.2418v-13.863h4.6209v-4.6208h-4.6209v-4.6209h-4.6209v9.2417h-13.863v-4.6208h-4.6209v-4.6209h4.6209v-4.6209h4.6209v-4.6208h4.6209v4.6208h-4.6209v4.6209h9.2418v-4.6209h4.6209v-9.2417h-4.6209v-4.6209h4.6209v-9.2418h-4.6209v4.6209h-4.6209v4.6209h-4.6209v4.6209h-4.6209v4.6209h-4.6209v4.6208h-4.6209v4.6209h-4.6209v4.6209h-4.6209v4.6208h-9.2418v4.6209h-4.6209v-9.2417h13.863v-4.6209h4.6209v-4.6209h-9.2418v4.6209h-4.6209v-4.6209h-4.6209v-4.6208h-4.6209v9.2417h-4.6209v9.2417h4.6209v9.2418h-4.6209v4.6209h-4.6209v4.6208h4.6209v4.6209h-4.6209v-4.6209h-4.6209v-4.6208h-4.6209v9.2417h-4.6209v4.6209h9.2418v4.6209h-9.2418v-4.6209h-4.6209v9.2417h-11.552zm2.3104-4.6208h4.6209v-9.2418h4.6209v-4.6209h4.6209v-4.6208h4.6209v-4.6209h4.6209v4.6209h4.6209v-4.6209h4.6209v-4.6209h-4.6209v-4.6209h-9.2418v-9.2417h13.863v-9.2417h4.6209v-13.863h9.2418v4.6209h4.6209v9.2418h-4.6209v-4.6209h-4.6209v4.6209h4.6209v4.6208h4.6209v-4.6208h9.2418v4.6208h4.6209v-9.2417h9.2418v-4.6209h4.6209v-4.6209h-9.2418v-4.6209h13.863v-4.6208h13.863v4.6208h4.6209v4.6209h-4.6209v13.863h4.6209v9.2417h-4.6209v-4.6209h-4.6209v4.6209h4.6209v4.6209h13.863v-4.6209h4.6209v-4.6209h4.6209v-4.6208h-9.2418v-4.6209h4.6209v-4.6209h4.6209v-9.2418h4.6209v-4.6208h-4.6209v-4.6209h4.6209v-4.6209h4.6209v-4.6208h-9.2418v4.6208h-4.6209v-18.484h4.6209v-4.6208h-9.2418v-4.6209h4.6209v-4.6209h4.6209v-4.6209h4.6209v-9.2417h-4.6209v-4.6209h4.6209v-4.6208h-9.2417v4.6208h-4.6209v-4.6208h-9.2418v4.6208h-4.6209v-9.2417h4.6209v-4.6209h-4.6209v-9.2418h-4.6209v-9.2418h-9.2418v-4.6209h-4.6209v9.2418h-9.2418v4.6209h-4.6209v4.6209h-4.6209v4.6209h-4.6209v4.6209h-4.6209v4.6209h-4.6209v-9.2418h-9.2418v-4.6209h4.6209v-4.6209h-4.6209v4.6209h-4.6209v9.2418h4.6209v4.6209h-4.6209v4.6208h-4.6209v4.6209h-4.6209v4.6209h-4.6209v-4.6209h-9.2417v4.6209h4.6209v9.2417h-4.6209v-4.6209h-4.6209v9.2418h-4.6209v4.6209h-4.6209v-9.2418h4.6209v-4.6209h-4.6209v-4.6208h9.2418v-4.6209h-4.6209v-4.6209h-9.2418v-9.2417h-4.6209v4.6209h-4.6209v-4.6209h-4.6209v4.6209h4.6209v4.6208h-4.6209v4.6209h9.2417v-4.6209h4.6209v4.6209h4.6209v4.6209h-4.6209v4.6208h4.6209v4.6209h-18.483v4.6209h-4.6209v-4.6209h-9.2418v18.484h-4.6209v-4.6209h-4.6209v4.6209h4.6209v9.2418h9.2418v4.6208h4.6209v4.6209h-4.6209v4.6209h4.6209v4.6208h4.6209v4.6209h4.6209v4.6209h-4.6209v4.6209h4.6209v-4.6209h4.6209v-9.2418h4.6209v9.2418h4.6209v-9.2418h-4.6209v-4.6208h-4.6209v4.6208h-9.2417v-4.6208h4.6209v-4.6209h-4.6209v-4.6209h13.863v4.6209h4.6209v4.6209h4.6209v4.6208h9.2418v4.6209h4.6209v4.6209h-9.2418v-4.6209h-4.6209v4.6209h4.6209v4.6209h-4.6209v4.6209h-4.6209v4.6208h9.2418v-4.6208h4.6209v4.6208h4.6209v-13.863h9.2418v4.6209h-4.6209v13.863h-9.2417v9.2417h-9.2418v-4.6208h4.6209v-4.6209h-4.6209v4.6209h-4.6209v4.6208h4.6209v4.6209h9.2418v-4.6209h4.6209v9.2418h-4.6209v4.6209h-4.6209v9.2417h-4.6209v4.6209h-4.6209v4.6209h4.6209zm25.415-23.104h-2.3104v-4.6209h4.6209v4.6209h-2.3104zm83.176-18.484h-2.3104v-4.6209h4.6209v4.6209h-2.3104zm-78.555-9.2417h-2.3104v-4.6209h4.6209v4.6209h-2.3104zm27.725-4.6209h-2.3104v-4.6209h4.6209v-4.6209h9.2418v4.6209h-9.2418v4.6209h-2.3104zm46.209 0h-2.3104v-4.6209h4.6209v-9.2418h-4.6209v-4.6208h-4.6209v-4.6209h4.6209v4.6209h4.6209v-4.6209h4.6209v-4.6209h-9.2418v-4.6208h4.6209v-4.6209h4.6209v9.2417h4.6209v4.6209h-4.6209v4.6209h-4.6209v4.6208h9.2418v4.6209h-4.6209v4.6209h-4.6209v4.6209h-2.3104zm-78.555-4.6209h-2.3104v-4.6209h-9.2418v-4.6209h-4.6209v-9.2417h-13.863v-4.6209h9.2418v-4.6208h-4.6209v-4.6209h4.6209v-4.6209h4.6209v-4.6209h9.2417v-9.2417h4.6209v-4.6209h-4.6209v-4.6209h4.6209v-4.6208h9.2418v-9.2418h9.2418v-4.6208h4.6209v9.2418h-4.6209v4.6209h4.6209v4.6208h-4.6209v4.6209h-4.6209v4.6209h-4.6209v-4.6209h4.6209v-4.6209h-9.2418v9.2418h-4.6209v4.6209h9.2418v9.2417h-4.6209v4.6209h-4.6209v9.2417h9.2418v-9.2417h4.6209v-4.6209h4.6209v-4.6209h4.6209v-4.6208h-4.6209v-4.6209h4.6209v-4.6209h4.6209v-18.484h4.6209v-9.2417h9.2418v4.6209h-4.6209v4.6208h-4.6209v18.484h-4.6209v9.2418h4.6209v-4.6209h4.6209v-4.6209h4.6209v-4.6209h4.6209v-4.6208h-9.2418v-4.6209h4.6209v-4.6209h4.6209v-4.6208h4.6209v4.6208h-4.6209v9.2418h4.6209v-4.6209h4.6209v-4.6209h4.6209v-4.6208h-4.6209v-9.2418h4.6209v-4.6209h-4.6209v-9.2417h9.2418v4.6209h4.6209v9.2418h4.6209v4.6209h-4.6209v4.6209h-4.6209v4.6208h-4.6209v4.6209h9.2418v-4.6209h4.6209v4.6209h-4.6209v4.6209h9.2418v-4.6209h4.6209v-4.6209h4.6209v4.6209h-4.6209v4.6209h9.2418v4.6208h-9.2418v9.2418h-4.6209v4.6209h-9.2418v-4.6209h9.2418v-4.6209h-9.2418v-9.2417h-4.6209v4.6208h-4.6209v4.6209h-4.6209v4.6209h-4.6209v4.6209h4.6209v9.2417h-4.6209v4.6209h-4.6209v-4.6209h4.6209v-9.2417h-4.6209v4.6208h-4.6209v4.6209h-4.6209v4.6209h-4.6209v-4.6209h-13.863v4.6209h-4.6209v4.6209h4.6209v4.6208h4.6209v-9.2417h4.6209v4.6209h18.484v4.6208h4.6209v4.6209h9.2417v-4.6209h4.6209v-4.6208h-9.2418v-4.6209h4.6209v-4.6209h4.6209v-4.6209h4.6209v4.6209h-4.6209v9.2418h4.6209v-4.6209h4.6209v-4.6209h4.6209v-4.6209h4.6209v4.6209h-4.6209v4.6209h-4.6209v9.2417h-9.2418v4.6209h-4.6209v4.6209h-9.2417v-4.6209h-4.6209v9.2417h-9.2418v-4.6208h4.6209v-9.2418h-4.6209v4.6209h-4.6209v4.6209h-4.6209v-4.6209h4.6209v-4.6209h-9.2418v13.863h4.6209v4.6209h-4.6209v-4.6209h-13.863v4.6209h-4.6209v4.6209h-2.3104zm0-4.6209h2.3104v-9.2417h9.2418v-4.6209h4.6209v-4.6209h-9.2418v4.6209h-4.6209v4.6209h-4.6209v-9.2418h-4.6209v-4.6208h-4.6209v9.2417h4.6209v4.6209h4.6209v9.2417h2.3104zm0-32.346h2.3104v-4.6209h-4.6209v4.6209h2.3104zm32.346 0h2.3104v-4.6209h4.6209v-4.6208h4.6209v-4.6209h4.6209v-4.6209h4.6209v-4.6209h4.6209v-9.2417h-4.6209v9.2417h-9.2418v4.6209h-4.6209v4.6209h-4.6209v9.2417h-4.6209v4.6209h2.3104zm46.209-23.104h2.3104v-4.6208h-4.6209v4.6208h2.3104zm-18.484-18.483h2.3104v-4.6209h4.6209v-4.6209h-4.6209v4.6209h-4.6209v4.6209h2.3104zm0-13.863h2.3104v-4.6209h-4.6209v4.6209h2.3104zm-110.9 64.692h-6.9313v-9.2418h4.6209v-4.6209h13.863v-4.6208h-9.2417v-4.6209h13.863v9.2417h9.2418v4.6209h-9.2418v4.6209h-9.2418v4.6209h-6.9313zm4.6209-4.6209h2.3104v-4.6209h-4.6209v4.6209h2.3104zm9.2418-4.6209h2.3104v-4.6209h-4.6209v4.6209h2.3104zm23.104-9.2417h-2.3104v-4.6209h4.6209v4.6209h-2.3104zm60.071-36.967h-2.3104v-13.863h4.6209v13.863h-2.3104zm-32.346 143.25h2.3104v-4.6209h-4.6209v4.6209h2.3104zm60.071 0h2.3104v-4.6209h4.6209v-4.6209h4.6209v-4.6209h-13.863v-4.6208h-4.6209v4.6208h-9.2418v4.6209h4.6209v4.6209h4.6209v-4.6209h9.2418v4.6209h-4.6209v4.6209h2.3104zm-106.28-9.2418h2.3104v-4.6209h4.6209v-4.6208h-4.6209v4.6208h-4.6209v4.6209h2.3104zm50.83 0h2.3104v-4.6209h-4.6209v4.6209h2.3104zm78.555 0h2.3104v-9.2417h-4.6209v9.2417h2.3104zm-13.863-9.2417h6.9313v-13.863h-13.863v13.863h6.9313zm0-4.6209h-2.3104v-4.6209h4.6209v4.6209h-2.3104zm13.863 0h2.3104v-4.6209h4.6209v-4.6209h4.6209v-4.6208h-4.6209v4.6208h-9.2418v9.2418h2.3104zm-46.209-13.863h2.3104v-4.6209h-4.6209v4.6209h2.3104zm-78.555-101.66h2.3104v-4.6209h-4.6209v4.6209h2.3104zm4.6209-13.863h2.3104v-4.6209h-4.6209v4.6209h2.3104zm-4.6209-18.483h2.3104v-4.6209h4.6209v-4.6209h-4.6209v4.6209h-4.6209v4.6209h2.3104zm57.761 147.87h-4.6209v-4.6209h9.2418v4.6209h-4.6209zm-99.349-9.2418h-2.3104v-4.6208h4.6209v4.6208h-2.3104zm-4.6209-9.2417h-2.3104v-4.6209h4.6209v4.6209h-2.3104zm6.9313-9.2417h-4.6209v-4.6209h-4.6209v-4.6209h9.2418v-4.6209h4.6209v13.863h-4.6209zm173.28-4.6209h-2.3104v-4.6209h4.6209v-18.484h4.6209v18.484h-4.6209v4.6209h-2.3104zm-175.59-78.555h-2.3104v-4.6208h4.6209v4.6208h-2.3104zm9.2418-18.483h-16.173v-32.346h32.346v32.346h-16.173zm0-4.6209h11.552v-23.104h-23.104v23.104h11.552zm0-4.6209h-6.9313v-13.863h13.863v13.863h-6.9313zm157.11 9.2417h-16.173v-32.346h32.346v32.346h-16.173zm0-4.6209h11.552v-23.104h-23.104v23.104h11.552zm0-4.6209h-6.9313v-13.863h13.863v13.863h-6.9313zm-69.313-9.2418h-2.3104v-4.6209h4.6209v-9.2417h9.2418v4.6208h-4.6209v4.6209h-4.6209v4.6209h-2.3104zm46.209-9.2418h-2.3104v-4.6208h4.6209v4.6208h-2.3104z"/>
  </g>
  <path d="m269.62 709.21c-0.68931 2.6304-252.76 215.7-252.76 215.7l188.87-2.6304 64.602-213.46z" fill="#f00" fill-opacity=".6375"/>
  <path d="m220.92 692.48 66.029-4.1232c9.3823-0.80834 16.386 1.6788 21.114 15.013l78.054 199.48c2.3175 9.9162 3.1135 21.732-6.5745 27.658l-60.048 43.57c-12.757 9.1775-31.244 2.6532-36.724-11.421l-82.852-247.25c-1.1305-10.236 2.4464-20.831 21.002-22.93z" fill="url(#c)"/>
  <path d="m222.83 691.98 68.769-4.9453c9.3823-0.80835 16.386 1.6788 21.114 15.013l73.806 200.31c2.3175 9.9162 2.7024 17.895-6.9856 23.821l-64.158 43.981c-11.49 3.9252-20.475-0.66944-24.255-11.97l-80.797-244.65c-2.1911-9.3369-0.9727-19.969 12.506-21.56z" fill="url(#d)"/>
  <path d="m225.92 693.39 66.36-5.8135c9.2377-0.79589 16.133 1.653 20.789 14.781l72.669 196.68c2.2818 9.7633 2.1211 19.508-7.4175 25.342l-62.63 41.954c-11.313 3.8647-16.922-2.0083-20.643-13.134l-80.226-239.8c-2.1573-9.1929-2.1719-18.447 11.099-20.013z" fill="#1a1a1a"/>
  <path d="m295.08 687.45c-0.82493 0.0114-1.6689 0.0568-2.5349 0.13141l-66.362 5.8159c-13.271 1.566-13.255 10.819-11.098 20.012l6.9096 20.652 97.501-15.019-6.1635-16.68c-4.2192-11.898-10.279-15.024-18.253-14.913z" opacity=".6791"/>
  <path d="m377.85 883.95-87.473 47.721 6.583 19.538c3.5607 10.569 8.9244 16.146 19.749 12.475l59.928-39.852c9.127-5.5422 9.2814-14.797 7.0981-24.072l-5.8853-15.809z" fill="#020202" opacity=".7914"/>
  <g transform="matrix(.38631 0 0 .38631 147.06 719.51)">
   <path transform="translate(0 652.36)" d="m539.63-285.54-154.91 66.723-98.211-286.37 164.92-33.135 88.195 252.79z" fill="#fff"/>
   <path d="m403.25 418.79-13.418 5.6927-8.0402-23.258-8.0408-23.259 13.579-5.2299 13.312-5.1268 7.8814 22.801 7.8809 22.799-13.154 5.5804m-2.2742-6.5787 9.4384-3.9509-5.6453-16.331-5.6455-16.332-9.519 3.7188-9.6554 3.772 5.7268 16.566 5.7266 16.565 9.5735-4.0075m-2.2742-6.5789-5.7375 2.3694-3.4261-9.9108-3.4262-9.9111 5.7669-2.2849 5.7179-2.2655 3.3969 9.8269 3.3968 9.8267-5.6887 2.3493m30.599 2.1056-9.1864 3.8972-4.4906-12.991-4.4908-12.992 1.8602-0.74742 1.855-0.74531-1.1195-3.2389-1.1195-3.239 1.853-0.73419 1.8478-0.73213-3.3493-9.69-3.3494-9.6904-1.8572 0.70503-1.8624 0.70703 1.1196 3.2393 1.1196 3.2391-1.8645 0.71809-1.8697 0.72011-1.1228-3.2482-1.1228-3.2484-5.6504 2.145-5.6984 2.1633-1.1324-3.2758-1.1324-3.2758-1.9135 0.71589-1.9189 0.71792-1.1356-3.2853-1.1356-3.2852-3.8607 1.4233-3.8828 1.4314-1.1422-3.304-1.1422-3.3042 3.8893-1.4126 3.8672-1.4046 1.1357 3.2854 1.1356 3.2852 1.9221-0.70861 1.9167-0.70661 1.1324 3.2759 1.1324 3.276 5.708-2.1356 5.6599-2.1176-1.1228-3.2484-1.1228-3.2483-3.7743 1.3914-3.7956 1.3993-1.1292-3.2667-1.1292-3.2669 3.8021-1.3809 3.7807-1.3731 1.1229 3.2485 1.1228 3.2483 1.8792-0.69278 1.874-0.69086-4.4787-12.957-4.4789-12.958-1.8866 0.65452-1.8919 0.65638 2.2458 6.4972 2.2458 6.4971-3.787 1.3549-3.8084 1.3625-1.1293-3.267-1.1292-3.2668-1.9155 0.67492-1.9209 0.67682 1.1324 3.2761 1.1325 3.2762-1.9232 0.68803-1.9286 0.68999-2.2714-6.5709-2.2714-6.571 3.8647-1.3408 3.8429-1.3333-1.1293-3.267-1.1293-3.2669-3.8493 1.3148-3.8712 1.3222-1.1357-3.2855-1.1358-3.2857-1.9471 0.65458-1.9526 0.65646-2.278-6.5899-2.2781-6.5902 1.9592-0.63772 1.9536-0.63591-1.1358-3.2857-1.1359-3.2859-3.9192 1.2549-3.9416 1.2621 1.1424 3.3046 1.1423 3.3044-1.976 0.6432-1.9817 0.64505 1.1456 3.3139 1.1456 3.314 1.9784-0.65452 1.9727-0.65265 1.1423 3.3044 1.1423 3.3043-1.9694 0.6621-1.9751 0.66399 1.1456 3.3139 1.1456 3.3137-1.9774 0.67541-1.9831 0.67733-11.489-33.234-11.49-33.237 2.0163-0.58205 2.0105-0.58036 1.1457 3.3143 1.1458 3.3144 2.0014-0.58818 1.9957-0.58652-2.285-6.6098-2.285-6.6099-4.0103 1.1368-4.0333 1.1434-3.4473-9.9719-3.4474-9.9722 4.0532-1.0862 4.03-1.0801 1.1425 3.3051 1.1426 3.3052-2.0089 0.5487-2.0146 0.55027 1.1458 3.3145 1.1458 3.3144 4.0169-1.1179 3.994-1.1115-1.1392-3.2956-1.1392-3.2956 1.9917-0.54402 1.9861-0.54248 1.136 3.2862 1.136 3.2862 1.9772-0.55025 1.9716-0.5487 1.1328 3.277 1.1327 3.2768 1.9628-0.55642 1.9573-0.55484-1.1295-3.2676-1.1296-3.2678 1.9549-0.54407 1.9494-0.54254-1.1263-3.2584-1.1263-3.2585-3.9108 1.0682-3.9329 1.0742-1.1328-3.2771-1.1328-3.277-3.9617 1.0617-3.9843 1.0678-1.1393-3.2957-1.1393-3.2958 1.9983-0.52528 1.9926-0.52379-1.136-3.2864-1.136-3.2864-1.9958 0.51444-2.0015 0.51591-1.1393-3.2958-1.1394-3.296-6.0487 1.5283-6.1008 1.5415-1.1492-3.3242-1.1493-3.3244 8.1361-2.0144 8.0436-1.9915 2.2722 6.5731 2.2722 6.5731 1.9902-0.51298 1.9846-0.51155-1.1328-3.2771-1.1329-3.2773 1.9821-0.50082 1.9765-0.49941-1.1296-3.2679-1.1297-3.2681 1.9742-0.48877 1.9686-0.4874 1.1265 3.2589 1.1264 3.2587 1.9599-0.4952 1.9544-0.49379-1.1232-3.2496-1.1233-3.2498 1.9521-0.48331 1.9466-0.48195-1.1201-3.2406-1.1201-3.2406-1.9498 0.47287-1.9552 0.47418-1.1233-3.2498-1.1233-3.2497 1.9584-0.46508 1.9529-0.46379 1.1201 3.2406 1.1202 3.2408 1.9443-0.47155 1.9389-0.47023-2.234-6.4633-2.234-6.4634 1.9397-0.4509 1.9343-0.44962-1.1139-3.2227-1.1139-3.2228-1.9374 0.44066-1.9429 0.44188-1.117-3.2317-1.117-3.2317-1.9514 0.43407-1.9569 0.4353 2.2404 6.4816 2.2404 6.4816-1.9561 0.4547-1.9616 0.45597-3.37-9.7496-3.3701-9.7499 3.9366-0.85608 3.9146-0.85127-1.1171-3.2318-1.1171-3.232-3.9209 0.83317-3.9429 0.83788-1.1234-3.25-1.1234-3.2501 3.9493-0.81966 3.9272-0.81509 1.1171 3.2319 1.1171 3.2319 1.9522-0.41485 1.9468-0.41368-1.114-3.2229-1.114-3.2229 1.9445-0.40357 1.9391-0.40246 1.1109 3.214 1.1108 3.2139 1.9306-0.41024 1.9253-0.40913-1.1078-3.205-1.1078-3.2051 1.923-0.39913 1.9177-0.39801 2.2094 6.3924 2.2094 6.3924-1.9116 0.41569-1.9169 0.41687 1.1077 3.2049 1.1078 3.2051-1.9191 0.42689-1.9244 0.42809 2.2216 6.4276 2.2216 6.4276 3.8312-0.89055 3.81-0.88565-2.2093-6.3921-2.2092-6.3921 3.8012-0.84557 3.7804-0.84091-1.0986-3.1787-1.0986-3.1785 3.7657-0.81889 3.7451-0.81443-1.0925-3.1612-1.0926-3.1614-1.873 0.398-1.8781 0.39909-1.0956-3.1699-1.0956-3.17 5.628-1.1681 5.5822-1.1586 1.0866 3.1441 1.0866 3.1441 1.8477-0.39263 1.8426-0.39155-1.0836-3.1356-1.0836-3.1356 1.8406-0.38202 1.8356-0.38097 1.0807 3.1271 1.0807 3.1271-1.8327 0.38944-1.8377 0.39051 1.0837 3.1357 1.0836 3.1355-1.8397 0.40005-1.8447 0.40115-1.0865-3.144-1.0866-3.1442-1.8527 0.39368-1.8577 0.39477 1.0896 3.1527 1.0895 3.1526-1.8598 0.40445-1.8649 0.40553 1.0925 3.1612 1.0925 3.1613-1.867 0.4153-1.8721 0.41645 1.0955 3.1698 1.0955 3.1698 1.8691-0.4251 1.864-0.42394 1.0925 3.1612 1.0925 3.161-1.861 0.43259-1.8661 0.43378-1.0955-3.1697-1.0955-3.1699-3.7536 0.85372-3.7743 0.85843 1.1016 3.1873 1.1015 3.1872-1.8919 0.43978-1.8971 0.441 1.1046 3.1961 1.1046 3.1959 1.894-0.4498 1.8888-0.44856 2.2031 6.3743 2.203 6.374-1.8827 0.46614-1.8879 0.46743-2.2091-6.3916-2.2092-6.3919-1.8993 0.45105-1.9046 0.4523 2.2153 6.4096 2.2152 6.4093-1.9037 0.47133-1.9089 0.47264 3.3322 9.6407 3.332 9.6402 3.794-0.99735 3.7731-0.99183-1.1045-3.1956-1.1045-3.1957 1.8818-0.48504 1.8766-0.48373 2.2029 6.3737 2.2029 6.3737 1.8654-0.49991 1.8602-0.49853-1.0984-3.178-1.0984-3.1782 1.8582-0.48844 1.8531-0.48712-1.0954-3.1694-1.0954-3.1694 1.851-0.47712 1.8459-0.47581-1.0924-3.1608-1.0924-3.1609-3.703 0.93562-3.7233 0.94076-1.0984-3.1782-1.0985-3.1784 1.8672-0.46233 1.8621-0.46102-1.0955-3.1697-1.0954-3.1696-1.8652 0.45235-1.8703 0.45359-1.0985-3.1784-1.0985-3.1784 1.8733-0.44487 1.8682-0.44365 1.0954 3.1696 1.0955 3.1697 1.86-0.45111 1.855-0.44988-1.0925-3.1611-1.0924-3.161 1.8529-0.44003 1.8478-0.43884-1.0894-3.1524-1.0895-3.1526 1.8458-0.42907 1.8408-0.4279-1.0865-3.1439-1.0866-3.144-1.8438 0.41933-1.8488 0.4205-1.0895-3.1525-1.0895-3.1525 1.8518-0.41192 1.8467-0.41079 1.0865 3.144 1.0865 3.1439 1.8387-0.41821 1.8338-0.41708 1.0836 3.1355 1.0835 3.1354-1.8308 0.42558-1.8358 0.42673 1.0865 3.144 1.0865 3.1438 1.8328-0.43527 1.8279-0.43408 2.167 6.2707 2.167 6.2704 3.6291-0.89853 3.6096-0.89368-1.0776-3.1183-1.0776-3.1183-1.8053 0.43781-1.8102 0.43902-2.1612-6.2537-2.1612-6.2538 1.816-0.42214 1.8111-0.421 2.1554 6.237 2.1553 6.2369 1.8004-0.43666 1.7956-0.43547-1.0748-3.1101-1.0747-3.11 1.7937-0.42596 1.7888-0.42481-1.0718-3.1017-1.0719-3.1018 1.7869-0.41538 1.7822-0.41425-1.069-3.0935-1.069-3.0936-3.5748 0.81306-3.5941 0.81743-1.0748-3.1101-1.0748-3.1102 1.8024-0.40091 1.7975-0.39985-1.0719-3.102-1.0719-3.1019 1.7956-0.39047 1.7908-0.38944-1.069-3.0936-1.0691-3.0938 1.7889-0.38013 1.7841-0.37912 1.0662 3.0855 1.0662 3.0854-1.7813 0.38736-1.786 0.38839 2.1381 6.1873 2.138 6.187 1.7803-0.40491 1.7755-0.40383-1.0661-3.0852-1.0662-3.0853 1.7737-0.39452 1.7689-0.3935-1.0634-3.0772-1.0633-3.0771 1.7671-0.38428 1.7624-0.38325-1.0605-3.069-1.0605-3.0691-1.7652 0.37509-1.7699 0.3761-1.0633-3.0772-1.0634-3.0772 1.7728-0.36793 1.768-0.36695 1.0605 3.0691 1.0605 3.0691 1.7605-0.37411 1.7559-0.37313-1.0577-3.0609-1.0577-3.061 1.754-0.36404 1.7494-0.36309 1.0549 3.0529 1.0549 3.0528-1.7466 0.37116-1.7512 0.37212 1.0577 3.061 1.0577 3.0609-1.7531 0.38122-1.7577 0.38224 1.0605 3.069 1.0605 3.0691 5.2508-1.168 5.2093-1.1588-1.0521-3.0449-1.0521-3.0448 1.7301-0.37624 1.7255-0.37523 1.0493 3.0368 1.0493 3.0369-1.7228 0.38323-1.7273 0.38423 1.052 3.0447 1.052 3.0447 1.7245-0.39224 1.72-0.39119 1.0493 3.0368 1.0492 3.0366-1.7172 0.39918-1.7218 0.40023 1.052 3.0447 1.052 3.0446 1.719-0.40823 1.7145-0.40715 2.0985 6.0732 2.0984 6.073 1.7044-0.42201 1.7-0.42089 1.0465 3.0286 1.0464 3.0285 1.6928-0.42771 1.6884-0.42659 1.0437 3.0207 1.0436 3.0206 1.6812-0.43335 1.6768-0.43224-2.0819-6.0255-2.0819-6.0256 5.0207-1.2431 4.9818-1.2334 1.0329 2.9895 1.0328 2.9894 1.6494-0.41672 1.6451-0.41567-1.0302-2.9817-1.0302-2.9818 1.6435-0.40693 1.6393-0.40588 2.055 5.9482 2.055 5.9481-3.2722 0.84342-3.2891 0.84781 1.0328 2.9893 1.0328 2.9893-1.6482 0.43328-1.6525 0.43439 1.0355 2.9972 1.0355 2.997 3.2954-0.88316 3.2784-0.8786-1.0301-2.9815-1.0302-2.9817 1.6355-0.42994 1.6313-0.42882 1.0275 2.974 1.0274 2.9739-1.6287 0.43648-1.6328 0.43761 1.0301 2.9815 1.0301 2.9816 1.6302-0.44528 1.626-0.44414 2.0548 5.9476 2.0548 5.9476-1.6207 0.45943-1.6249 0.46063 1.0301 2.9815 1.03 2.9814-1.6264 0.4695-1.6306 0.4707-1.0327-2.989-1.0328-2.9892 1.6333-0.46301 1.6291-0.46179-2.0601-5.963-2.0601-5.9629-1.6344 0.44642-1.6386 0.44759 1.0328 2.9892 1.0327 2.9891-1.6402 0.45648-1.6444 0.45765 1.0355 2.997 1.0354 2.9968-1.646 0.4666-1.6503 0.46783 2.0762 6.0093 2.0762 6.0092 1.6449-0.48339 1.6406-0.48215 1.0354 2.9967 1.0354 2.9967-1.6379 0.48991-1.6422 0.4912 2.0762 6.009 2.0761 6.0089 1.6367-0.50676 1.6325-0.50545-1.0354-2.9967-1.0353-2.9966 1.631-0.49639 1.6268-0.49512-1.0326-2.9889-1.0327-2.989 1.6253-0.48613 1.621-0.48489 1.03 2.9814 1.03 2.9812-1.6184 0.49257-1.6226 0.49383 2.0653 5.9779 2.0653 5.9778 1.6172-0.50926 1.613-0.50795-1.03-2.9812-1.03-2.9811 1.6116-0.49897 1.6074-0.49768 2.0546 5.9471 2.0546 5.9468-3.2083 1.0273-3.2249 1.0326 1.0326 2.9888 1.0326 2.9887-1.616 0.52603-1.6202 0.5274 1.0353 2.9964 1.0353 2.9965 1.6175-0.53513 1.6134-0.53375 1.0326 2.9886 1.0326 2.9886-1.6107 0.5415-1.6148 0.54289 2.0705 5.9928 2.0705 5.9927-1.6136 0.55983-1.6178 0.56128 2.0758 6.0081 2.0758 6.008 1.6124-0.57686 1.6082-0.57536 1.0352 2.9962 1.0352 2.9961-1.6055 0.58311-1.6097 0.58467 1.0379 3.004 1.0378 3.0038-1.6112 0.59397-1.6154 0.59552 1.0406 3.0116 1.0406 3.0118 3.2211-1.2051 3.2044-1.1989-1.0352-2.9962-1.0352-2.996 1.5987-0.58936 1.5946-0.58786-1.0325-2.9883-1.0325-2.9885 1.5931-0.57862 1.589-0.57713 1.0298 2.9808 1.0298 2.9806 1.5823-0.58331 1.5782-0.58182 3.0814 8.9189 3.0813 8.9188-3.1445 1.211-3.1608 1.2173 1.0325 2.9883 1.0324 2.9881-1.5838 0.61874-1.5879 0.62037 1.0351 2.9959 1.0351 2.996 4.7434-1.8794 4.7068-1.8649 3.0811 8.9182 3.081 8.918-1.557 0.64297-1.561 0.64464 2.0593 5.9606 2.0593 5.9604-1.5596 0.66166-1.5637 0.66339-3.097-8.9638-3.097-8.964-1.5758 0.64195-1.5799 0.64357 1.0351 2.9958 1.035 2.9957-1.5813 0.65301-1.5854 0.65472 2.0754 6.007 2.0754 6.0068-1.5841 0.67203-1.5882 0.67377-2.0808-6.0224-2.0809-6.0226 1.5936-0.65812 1.5895-0.65641-1.0377-3.0035-1.0378-3.0036-3.1885 1.2989-3.2052 1.3057 2.0864 6.0384 2.0864 6.0383-3.211 1.3441-3.2278 1.3512 1.0486 3.0349 1.0486 3.0349-3.2393 1.3742-3.2564 1.3815-1.0542-3.0509-1.0542-3.0509-1.6374 0.68543-1.6418 0.68722 1.057 3.059 1.057 3.0589-1.6433 0.69716-1.6477 0.699-1.0598-3.067-1.0598-3.0671 1.6505-0.6909 1.6461-0.68906-1.057-3.0591-1.057-3.059-1.6489 0.68096-1.6533 0.68279-1.0598-3.0672-1.0599-3.0673-1.6605 0.67645-1.6649 0.67824-2.1254-6.1508-2.1254-6.1508-1.675 0.66369-1.6795 0.66545-1.0656-3.0838-1.0656-3.0837-1.6868 0.659-1.6914 0.66077 2.1369 6.1839 2.1368 6.1837 1.6856-0.67727 1.6812-0.67546 1.0656 3.0837 1.0655 3.0835-1.6783 0.68369-1.6828 0.68551 1.0684 3.0919 1.0684 3.0917-1.6844 0.69562-1.6889 0.69746 1.0712 3.1 1.0713 3.1001 3.3676-1.4096 3.3496-1.4022-1.0656-3.0836-1.0655-3.0835 1.671-0.69006 1.6665-0.68823 2.1254 6.1506 2.1253 6.1504-4.9958 2.1194-5.036 2.1365-1.0712-3.0999-1.0712-3.0999-1.6906 0.70767-1.6951 0.70957 1.0741 3.1082 1.0741 3.1082-3.3981 1.4416-3.4165 1.4494-1.0799-3.125-1.08-3.125-3.4408 1.4403-3.4595 1.4482 1.0858 3.142 1.0858 3.142-3.4725 1.4732-3.4914 1.4812-2.1836-6.3183-2.1837-6.3185 1.7541-0.72437 1.7493-0.72242-3.2666-9.4521-3.2667-9.4524 1.7535-0.69476 1.7487-0.69286-1.086-3.1424-1.0859-3.1423 1.7469-0.68247 1.7422-0.68061 2.166 6.2676 2.1659 6.2674 1.7316-0.69574 1.7269-0.69384 1.08 3.1253 1.08 3.1252-1.724 0.70229-1.7286 0.70419 1.083 3.1337 1.0829 3.1336 1.7257-0.71267 1.721-0.71074 1.08 3.1251 1.08 3.1252 3.4223-1.4326 3.4039-1.4249-1.0742-3.1084-1.0742-3.1083 1.698-0.70123 1.6934-0.69937-1.0712-3.1-1.0713-3.1002 1.6918-0.68918 1.6873-0.68735-1.0684-3.0918-1.0685-3.0919-3.3848 1.36-3.403 1.3673-1.0742-3.1084-1.0742-3.1084 1.7067-0.67623 1.7021-0.6744-1.0714-3.1003-1.0713-3.1002 1.7004-0.6643 1.6959-0.66252-1.0684-3.0919-1.0685-3.0921 1.6942-0.65251 1.6897-0.65078 1.0656 3.0838 1.0656 3.0837 3.3603-1.3127 3.3424-1.3058-1.0599-3.0673-1.06-3.0675 1.6674-0.64218 1.663-0.64049 1.0571 3.0594 1.0571 3.0592-1.6602 0.64859-1.6646 0.65029 1.0599 3.0673 1.0599 3.0674 3.3191-1.3151 3.3016-1.3082-3.1629-9.1536-3.163-9.1539 1.6526-0.62739 1.6483-0.62575-1.0515-3.0432-1.0515-3.0433-1.6511 0.61772-1.6554 0.61936-1.0544-3.0514-1.0543-3.0514-1.6626 0.61294-1.667 0.61455 2.1143 6.1189 2.1142 6.1187-5.0107 1.9022-5.0508 1.9174-1.0656-3.0838-1.0656-3.0838-1.6954 0.63431-1.7 0.63601-1.0685-3.0922-1.0685-3.0921 1.7028-0.62777 1.6983-0.62609-1.0657-3.0839-1.0657-3.0841 1.6966-0.61621 1.6921-0.61458-1.0628-3.0757-1.0628-3.0758 1.6904-0.60478 1.686-0.60317 1.06 3.0676 1.06 3.0676-1.6831 0.61132-1.6876 0.61294 1.0629 3.0758 1.0628 3.0757 3.3651-1.2406 3.3473-1.234-1.0572-3.0594-1.0572-3.0596 1.6698-0.60649 1.6654-0.60486-2.1088-6.1029-2.1088-6.1031-1.671 0.58876-1.6754 0.59032-1.0572-3.0597-1.0572-3.0596 1.6782-0.58224 1.6738-0.58071-2.1089-6.1033-2.1089-6.1034-1.6794 0.56459-1.6839 0.56609 1.0573 3.0598 1.0572 3.0597-1.6855 0.57568-1.69 0.57723 1.06 3.0678 1.0601 3.0679-1.6916 0.58688-1.6961 0.58845 1.0629 3.0759 1.0629 3.076-1.6978 0.59819-1.7023 0.59981 1.0657 3.084 1.0657 3.0841-1.704 0.60964-1.7086 0.61125 1.0685 3.0922 1.0685 3.0922-1.7102 0.62116-1.7148 0.62283 1.0714 3.1006 1.0714 3.1004-1.7166 0.63284-1.7212 0.63452 1.0743 3.1087 1.0743 3.1088-1.7229 0.64458-1.7276 0.64635 1.0772 3.117 1.0772 3.117-3.4633 1.3147-3.482 1.3219 1.0831 3.134 1.083 3.1338-1.7451 0.67214-1.7499 0.67393-2.172-6.2849-2.172-6.2848 5.2532-1.9654 5.2107-1.9495-1.0772-3.1172-1.0772-3.1171 1.7305-0.63795 1.7258-0.63623-1.0743-3.1087-1.0744-3.1089-3.4621 1.2574-3.4808 1.2642 1.0802 3.1257 1.0801 3.1255-1.7445 0.64314-1.7493 0.64488-1.0831-3.134-1.0831-3.1342-1.757 0.63812-1.7617 0.63986-1.086-3.1426-1.086-3.1426-1.7695 0.63305-1.7743 0.63478 2.178 6.3023 2.178 6.3023-1.7732 0.6537-1.778 0.65549 2.184 6.3194 2.1839 6.3192 1.772-0.67271 1.7672-0.67087 2.178 6.302 2.1779 6.3019-1.7612 0.68807-1.766 0.68994 1.0919 3.1594 1.0919 3.1595-1.7679 0.70046-1.7727 0.70238 1.0949 3.168 1.0949 3.168 1.7697-0.71105 1.7649-0.70911 1.0919 3.1595 1.0918 3.1593-1.7619 0.71774-1.7667 0.7197-1.0949-3.168-1.0949-3.1681-1.7746 0.71299-1.7794 0.71494-1.0979-3.1767-1.0979-3.1767-1.7874 0.70819-1.7923 0.71014 2.2019 6.3709 2.2019 6.3709-1.7911 0.72965-1.7961 0.73167 1.104 3.1943 1.104 3.1941 3.5811-1.4789 3.5614-1.4708 1.0979 3.1765 1.0979 3.1767-3.5554 1.4883-3.575 1.4965-1.104-3.1942-1.104-3.1941-1.798 0.74252-1.803 0.74457 2.2141 6.406 2.214 6.4057-9.0592 3.8433 4e-5 1.3e-4m-0.40447-7.2143 3.6349-1.5216-2.2203-6.4237-2.2203-6.4239 1.8161-0.73982 1.811-0.73776-1.1071-3.203-1.1071-3.2032 1.8091-0.72687 1.8041-0.72487-1.104-3.1942-1.104-3.1942 1.8022-0.71407 1.7972-0.71209-1.101-3.1856-1.101-3.1855 1.7953-0.70139 1.7904-0.69945 1.0979 3.1768 1.098 3.1769 1.7825-0.70624 1.7776-0.70431-1.0949-3.1682-1.0949-3.1681 1.7757-0.69373 1.7709-0.69183-1.0919-3.1595-1.092-3.1596-1.7739 0.68318-1.7788 0.68507-1.0949-3.1682-1.095-3.1683-3.5782 1.3584-3.5979 1.3659-2.202-6.3713-2.2021-6.3716 5.4077-1.9936 5.3633-1.9772-2.184-6.3195-2.184-6.3195 1.784-0.63825 1.7791-0.63653-3.2672-9.4538-3.2673-9.454 3.5617-1.2165 3.5423-1.2099 1.0832 3.1342 1.0832 3.1344 1.761-0.61099 1.7563-0.60933 2.1604 6.2515 2.1604 6.2514-1.7504 0.62623-1.7551 0.62793-1.0832-3.1342-1.0831-3.1341-1.7629 0.62114-1.7676 0.62281 1.0861 3.1426 1.0861 3.1428 1.7647-0.63134 1.7599-0.62962 1.0831 3.1341 1.0831 3.134 1.7522-0.63641 1.7475-0.63467-1.0801-3.1256-1.0802-3.1256 3.4867-1.2474 3.4679-1.2407 1.0743 3.1088 1.0743 3.1088 1.7241-0.62618 1.7195-0.62451-2.1428-6.201-2.1429-6.2012 3.4366-1.2109 3.4183-1.2044-1.0658-3.0842-1.0657-3.0841 1.7052-0.59158 1.7006-0.59003-1.0629-3.076-1.0629-3.0759-3.4115 1.1652-3.4298 1.1714-1.0686-3.0924-1.0686-3.0926 5.1464-1.7302 5.1054-1.7164-1.0601-3.0678-1.0601-3.0679 5.0734-1.6785 5.0334-1.6652 1.0517 3.0437 1.0517 3.0436 1.6662-0.56015 1.6618-0.55869 1.049 3.0358 1.0489 3.0356-1.659 0.56666-1.6634 0.56813 3.155 9.1308 3.1549 9.1307 1.6551-0.59212 1.6507-0.59057 2.0976 6.0708 2.0976 6.0709-1.6452 0.60651-1.6495 0.60809-1.0516-3.0433-1.0516-3.0435-1.6567 0.60171-1.661 0.60328 1.0544 3.0515 1.0544 3.0514 1.6582-0.61131 1.6539-0.60974 1.0516 3.0433 1.0516 3.0434 4.9273-1.8435 4.8887-1.829-1.0433-3.0196-1.0433-3.0195 1.6238-0.59862 1.6196-0.59708-1.0406-3.0117-1.0406-3.0118 1.6181-0.58769 1.6139-0.58616-1.0379-3.0039-1.0379-3.0039-3.2374 1.1582-3.2543 1.1643-1.0434-3.0198-1.0433-3.0196 1.632-0.57502 1.6278-0.57354-1.0406-3.0119-1.0406-3.0118 1.6262-0.56421 1.622-0.56276-2.0759-6.0082-2.0759-6.0083 1.6232-0.54572 1.619-0.54429-1.0352-2.9964-1.0352-2.9964-1.6217 0.53652-1.6259 0.53793-1.038-3.0042-1.038-3.0043 1.6286-0.53013 1.6244-0.52876-1.0353-2.9965-1.0353-2.9966 1.6229-0.51964 1.6187-0.51831-1.0326-2.9888-1.0326-2.9888-3.247 1.0224-3.2639 1.0278 1.038 3.0043 1.038 3.0043-1.6356 0.52371-1.6398 0.52506-4.163-12.049-4.1631-12.049 1.6507-0.49376 1.6464-0.49246-1.038-3.0045-1.0381-3.0045-3.3026 0.97057-3.3198 0.97567-1.0436-3.0204-1.0435-3.0202 1.6648-0.48059 1.6605-0.47934-1.0408-3.0124-1.0409-3.0126 1.6589-0.47025 1.6546-0.46904-1.0381-3.0046-1.0382-3.0048 1.653-0.46002 1.6487-0.45883-2.0709-5.9938-2.071-5.994-1.6541 0.44328-1.6584 0.44445-1.0382-3.0048-1.0382-3.0049 1.6611-0.43665 1.6568-0.43554-1.0355-2.997-1.0355-2.9971-3.3233 0.85662-3.3406 0.86108 1.0409 3.0127 1.0409 3.0126-1.6741 0.44008-1.6785 0.44123-1.0436-3.0205-1.0436-3.0205-3.3756 0.87011-3.3934 0.87469 1.0491 3.0364 1.0491 3.0363-1.7006 0.44704-1.7051 0.44822-2.1038-6.0887-2.1039-6.0889 1.7106-0.43221 1.7062-0.4311-1.0492-3.0364-1.0492-3.0366-1.7089 0.42311-1.7134 0.42422-2.1039-6.089-2.104-6.0892-1.7235 0.40931-1.728 0.41039-2.1096-6.1054-2.1097-6.1055-3.481 0.79174-3.4995 0.79592-1.0604-3.0689-1.0604-3.0689-1.7596 0.39141-1.7642 0.39244 2.1266 6.1541 2.1266 6.1542-3.5312 0.82083-3.5501 0.82522 1.069 3.0936 1.069 3.0934-1.7793 0.42255-1.784 0.42369 1.0718 3.1017 1.0719 3.1018-1.7859 0.43314-1.7908 0.43431 1.0747 3.11 1.0747 3.1099-1.7927 0.44385-1.7975 0.44504 1.0776 3.1184 1.0776 3.1182-1.7994 0.45465-1.8043 0.45588 1.0806 3.1268 1.0805 3.1266-1.8062 0.46557-1.8111 0.46683-2.167-6.2704-2.167-6.2704-3.6488 0.90342-3.6688 0.90834-1.0894-3.1523-1.0894-3.1523 1.8398-0.44623 1.8348-0.44499-1.0865-3.1439-1.0865-3.1438-1.8378 0.43645-1.8428 0.43763 1.0894 3.1524 1.0895 3.1525-1.8449 0.44743-1.8499 0.44866 2.1848 6.3218 2.1848 6.3218 1.8439-0.4659 1.8389-0.46462 1.0894 3.1523 1.0894 3.1522-1.8359 0.47323-1.8409 0.47452 1.0924 3.1608 1.0924 3.1607-1.843 0.48447-1.848 0.48578 1.0954 3.1695 1.0954 3.1693-1.85 0.49581-1.8551 0.49718 1.0984 3.178 1.0984 3.1781-1.8572 0.50727-1.8623 0.50868-1.1015-3.1869-1.1014-3.1868-3.7462 1.004-3.7669 1.0095 1.1075 3.2044 1.1076 3.2045 1.883-0.51433 1.8778-0.5129 2.2089 6.391 2.2089 6.391-1.8716 0.53059-1.8768 0.53204-1.1075-3.2043-1.1075-3.2044-1.8851 0.52464-1.8904 0.52609 2.2212 6.4265 2.2212 6.4264-1.8894 0.54543-1.8947 0.54694 1.1136 3.222 1.1137 3.2221-1.8968 0.55745-1.9022 0.559-2.2336-6.4621-2.2336-6.4623 1.9084-0.54099 1.9031-0.53948-1.1137-3.2221-1.1137-3.2223-1.9062 0.5305-1.9115 0.53198-1.1168-3.2312-1.1168-3.2312 3.824-1.0445 3.8027-1.0387-1.1107-3.2134-1.1106-3.2133-1.9018 0.50969-1.9071 0.51111-1.1138-3.2223-1.1138-3.2224-3.8365 1.0085-3.858 1.0142-2.2401-6.4808-2.2402-6.481-1.9434 0.49103-1.9489 0.49243 1.1233 3.2497 1.1232 3.2495-1.9512 0.50293-1.9567 0.50436-1.1264-3.2587-1.1264-3.2588-1.9654 0.4966-1.971 0.49799 1.1297 3.268 1.1296 3.2679 1.9678-0.50722 1.9622-0.50578 1.1264 3.2587 1.1264 3.2586-1.959 0.51497-1.9645 0.51643 1.1296 3.2679 1.1296 3.2678 3.9172-1.0498 3.8952-1.0439-1.1232-3.2494-1.1232-3.2496 1.9426-0.51064 1.9371-0.50921 1.1201 3.2405 1.12 3.2403 1.9285-0.51685 1.9232-0.5154 1.1169 3.2312 1.1169 3.2314-1.92 0.52444-1.9254 0.5259 1.12 3.2402 1.12 3.2402 1.9222-0.53497 1.9169-0.53346 1.1169 3.2313 1.1168 3.2311-7.6872 2.1792-7.774 2.2038 1.1295 3.2677 1.1295 3.2675-1.954 0.56409-1.9596 0.56567-1.1327-3.2768-1.1328-3.277-3.9423 1.1176-3.9648 1.124 4.5568 13.182 4.5566 13.181-1.9778 0.60195-1.9835 0.60368-1.1424-3.3047-1.1425-3.3049-1.9924 0.59595-1.9981 0.59768 1.1458 3.3143 1.1457 3.3141 1.9948-0.60714 1.9891-0.60541 2.2848 6.6094 2.2848 6.6093 3.9482-1.2433 3.9258-1.2362 1.1358 3.2858 1.1358 3.2858 1.9513-0.62478 1.9458-0.62302 1.1326 3.2766 1.1326 3.2764-1.9425 0.63232-1.948 0.6341 1.1358 3.2858 1.1358 3.2856 1.9448-0.64341 1.9393-0.64161 1.1325 3.2763 1.1325 3.2763 1.9306-0.64903 1.9251-0.64722 1.1294 3.2671 1.1293 3.267 1.9165-0.65461 1.9111-0.65275 1.1261 3.2577 1.1261 3.2579-1.9079 0.66193-1.9133 0.66379 1.1293 3.2669 1.1293 3.267 1.9101-0.67301 1.9047-0.67112-1.1261-3.2578-1.126-3.2577 1.9026-0.66007 1.8972-0.65822-2.2458-6.4973-2.2459-6.4974 1.8982-0.63815 1.8929-0.63639 2.2396 6.4792 2.2395 6.4791 1.8813-0.65272 1.8761-0.65088-2.2332-6.461-2.2333-6.4612-1.8823 0.63282-1.8876 0.63458-1.1198-3.2396-1.1198-3.2396-1.8961 0.62728-1.9014 0.62907 1.1229 3.2487 1.1229 3.2487-3.8125 1.2817-3.834 1.289-1.1293-3.267-1.1293-3.267 1.9229-0.63618 1.9175-0.63438-1.1261-3.2579-1.1262-3.258-1.9207 0.6252-1.9261 0.62696-1.1294-3.2671-1.1294-3.2673 5.7717-1.848 5.7232-1.8325 1.1198 3.2399 1.1198 3.2397 1.8939-0.61649 1.8886-0.61476 1.1167 3.2308 1.1166 3.2306 1.8802-0.62206 1.875-0.62032 1.1135 3.2216 1.1135 3.2215 3.7281-1.2534 3.7075-1.2464 1.1073 3.2038 1.1073 3.2037 1.843-0.62946 1.8379-0.62775 1.1042 3.1948 1.1042 3.1949-3.6747 1.2749-3.6951 1.282-1.1104-3.2126-1.1104-3.2126-1.8584 0.63474-1.8635 0.6365 1.1135 3.2215 1.1135 3.2216 1.8604-0.64547 1.8553-0.64365 1.1103 3.2125 1.1104 3.2126-1.8522 0.6526-1.8573 0.65441 1.1134 3.2214 1.1135 3.2215-1.8594 0.66522-1.8646 0.66707 1.1165 3.2303 1.1165 3.2303 3.7177-1.3503 3.697-1.3428-1.1103-3.2123-1.1103-3.2124 1.8439-0.65968 1.8388-0.65786 1.1072 3.2035 1.1072 3.2034 1.8306-0.66489 1.8256-0.66307-3.3125-9.584-3.3126-9.5843 3.6544-1.2679 3.6344-1.2609 1.0981 3.1772 1.0981 3.1773-1.8116 0.63832-1.8167 0.64008 3.3033 9.5577 3.3032 9.5575-3.63 1.3382-3.6501 1.3456 2.2144 6.4068 2.2143 6.4066-3.658 1.3887-3.6784 1.3964-1.1134-3.2211-1.1134-3.2211 1.8448-0.69024 1.8397-0.6883-1.1103-3.2124-1.1102-3.2122-1.8429 0.6794-1.848 0.68125 1.1134 3.2212 1.1134 3.2213-1.85 0.69215-1.8552 0.69407 1.1165 3.2301 1.1165 3.2301 1.852-0.7031 1.8469-0.70112 1.1134 3.2212 1.1133 3.221 3.6722-1.4143 3.6518-1.4065-1.1071-3.2032-1.1072-3.2034 1.8214-0.69144 1.8164-0.68957 2.2082 6.389 2.2081 6.3888-1.8103 0.70721-1.8152 0.70915 1.1071 3.2031 1.1071 3.2033-1.8172 0.72001-1.8222 0.72201 2.2203 6.4239 2.2203 6.424-1.8211 0.74188-1.8262 0.74393 1.1133 3.2209 1.1132 3.2208-1.8282 0.75499-1.8333 0.75709 1.1164 3.2298 1.1164 3.2299 3.6552-1.5301m8.7812-39.989-1.7855 0.69754-1.0979-3.1768-1.098-3.177 1.7885-0.68883 1.7836-0.68694 1.095 3.1682 1.0949 3.1681-1.7806 0.69561m52.812-48.084-1.6323 0.60176-1.046-3.0274-1.0461-3.0276 1.6351-0.59386 1.6308-0.59231 1.0434 3.0197 1.0433 3.0195-1.628 0.6002m-62.378 8.7273-1.7938 0.64176-1.0951-3.1686-1.095-3.1684 1.7968-0.63309 1.7919-0.63136 1.092 3.1598 1.0921 3.1599-1.7889 0.63999m18.997-13.793-1.7392 0.61278-1.0773-3.1174-1.0773-3.1173 1.7421-0.6044 1.7374-0.60279-1.0744-3.1091-1.0744-3.109 3.4667-1.1841 3.4482-1.1778 1.0686 3.0924 1.0686 3.0925-3.4424 1.1943-3.4609 1.2007 1.0743 3.1089 1.0744 3.109-1.7345 0.61116m33.827-11.919-1.6492 0.58108-1.0489-3.0356-1.0489-3.0355 1.6519-0.5731 1.6476-0.57164-2.0923-6.0554-2.0923-6.0555-1.6531 0.55577-1.6575 0.55721-1.0489-3.0357-1.0489-3.0357-1.6646 0.55071-1.669 0.55216-1.0517-3.0437-1.0517-3.0438 1.6717-0.54417 1.6674-0.54274 1.049 3.0359 1.0489 3.0357 1.6602-0.54927 1.6559-0.54782-1.0462-3.0278-1.0462-3.0279 1.6543-0.53848 1.65-0.53707-1.0434-3.0199-1.0435-3.0201-3.3098 1.0598-3.3271 1.0653-1.049-3.0358-1.049-3.0358 1.6685-0.5254 1.6641-0.52404-1.0462-3.028-1.0462-3.0279 1.6625-0.51476 1.6582-0.51342 2.087 6.0402 2.0869 6.04 1.6484-0.52781 1.6441-0.52644 1.0408 3.0122 1.0407 3.012-1.6414 0.53428-1.6457 0.5357 1.0435 3.02 1.0434 3.0199-1.6472 0.54497-1.6515 0.54641 1.0462 3.0277 1.0461 3.0277 3.2933-1.1072 3.2762-1.1014 1.0407 3.0121 1.0406 3.0119-1.6332 0.55783-1.6375 0.55928 1.0434 3.0198 1.0434 3.0198-1.639 0.56864-1.6433 0.57012 1.0461 3.0276 1.0461 3.0277-1.6449 0.57954m-60.803 14.305-1.8097 0.62786-1.0981-3.1774-1.0981-3.1773-3.6405 1.2434-3.6606 1.2503-1.1042-3.1948-1.1043-3.195-1.8409 0.61889-1.846 0.62063-2.2146-6.4075-2.2147-6.4077-5.5875 1.8188-5.6343 1.834-1.1167-3.2307-1.1167-3.2308 3.7677-1.2064 3.7468-1.1997-1.1104-3.2128-1.1105-3.2128-1.8739 0.5901-1.8791 0.59171-1.1136-3.2219-1.1136-3.2218 1.8822-0.58276 1.877-0.58116-1.1105-3.2129-1.1105-3.213 1.8749-0.57064 1.8697-0.56904-1.1074-3.204-1.1075-3.2042 3.73-1.1157 3.7095-1.1096-2.2026-6.373-2.2027-6.3732 1.8532-0.53497 1.8481-0.53349-1.0983-3.1778-1.0984-3.178-1.8511 0.52475-1.8562 0.5262-1.1014-3.1866-1.1014-3.1868 1.8593-0.51744 1.8542-0.51601-1.0983-3.1779-1.0984-3.178 3.6991-1.0104 3.6789-1.0049-2.1847-6.3214-2.1847-6.3215 3.6708-0.96495 3.6509-0.95972-1.0864-3.1436-1.0864-3.1436 1.821-0.46939 1.8161-0.4681 2.1669 6.2701 2.1669 6.2701-1.8101 0.48513-1.815 0.48641 1.0864 3.1435 1.0864 3.1436 1.8121-0.49497 1.8072-0.49361 1.0834 3.1349 1.0834 3.1349-1.8042 0.50212-1.8091 0.50347 1.0864 3.1435 1.0863 3.1433-1.8111 0.51342-1.816 0.5148 1.0893 3.152 1.0893 3.1519-1.818 0.52479-1.8229 0.52623-1.0923-3.1605-1.0923-3.1606 1.8259-0.51761 1.821-0.51621-1.0893-3.1519-1.0894-3.1521-3.6529 1.0166-3.6729 1.0222 2.1906 6.3385 2.1906 6.3384-1.838 0.53058-1.843 0.53203 1.0983 3.1778 1.0983 3.1779 3.6749-1.08 3.6548-1.0741 2.1845 6.3207 2.1844 6.3208-1.8189 0.55361-1.8239 0.55512 1.0952 3.1691 1.0952 3.1689-1.8259 0.56533-1.8309 0.56687 2.1965 6.3552 2.1964 6.355 3.6447-1.167 3.6248-1.1606-2.1843-6.3203-2.1844-6.3205 1.811-0.56071 1.806-0.55917-1.0892-3.1516-1.0893-3.1518 1.8041-0.54909 1.7992-0.54759-1.0863-3.1431-1.0863-3.1433 1.7973-0.53758 1.7924-0.53613-1.0833-3.1347-1.0833-3.1347-1.7954 0.52762-1.8002 0.52907-1.0863-3.1434-1.0863-3.1433 1.8032-0.52053 1.7983-0.51912-1.0833-3.1348-1.0834-3.1349 1.7964-0.50924 1.7915-0.50785-4.3218-12.506-4.3219-12.506 1.7984-0.47275 1.7936-0.47148-2.1551-6.2363-2.1552-6.2366 3.5843-0.90563 3.5651-0.9008 1.0718 3.1016 1.0718 3.1015-1.7773 0.45811-1.782 0.45935 1.0747 3.1098 1.0746 3.1098-1.784 0.46894-1.7888 0.47022 4.3102 12.473 4.31 12.472-1.7819 0.50513-1.7867 0.5065 2.1608 6.2528 2.1608 6.2527 1.7808-0.52336 1.776-0.52196-1.0775-3.118-1.0775-3.1179 1.7742-0.51215 1.7694-0.51078-1.0746-3.1095-1.0746-3.1097 1.7675-0.50108 1.7628-0.49972-1.0717-3.1012-1.0717-3.1014 1.761-0.49008 1.7563-0.48877-1.0688-3.093-1.0688-3.093-3.523 0.96229-3.542 0.96745-1.0746-3.1098-1.0746-3.1097 1.7762-0.47604 1.7715-0.47476-1.0717-3.1014-1.0718-3.1015 1.7696-0.46519 1.7649-0.46393-1.0689-3.0932-1.0689-3.0932 1.763-0.45445 1.7584-0.45324 1.066 3.0849 1.066 3.0849-1.7555 0.46147-1.7602 0.46271 2.1378 6.1863 2.1377 6.1861 1.7545-0.47921 1.7498-0.47794-1.066-3.0849-1.066-3.0848 1.748-0.46844 1.7433-0.46722-1.0631-3.0766-1.0632-3.0768 1.7415-0.4578 1.7369-0.45657-1.0603-3.0686-1.0603-3.0686-1.7397 0.44843-1.7444 0.44963-2.1264-6.1537-2.1264-6.1538 1.75-0.43329 1.7454-0.43214-1.0604-3.0687-1.0604-3.0687-1.7482 0.424-1.7529 0.42512-2.1265-6.154-2.1265-6.1541 3.5124-0.81647 3.4939-0.81217 1.0576 3.0609 1.0576 3.0608 1.7372-0.41255 1.7326-0.41146 2.1095 6.1051 2.1095 6.105 1.7225-0.42645 1.7179-0.42534 1.052 3.0446 1.0519 3.0444-1.7152 0.43338-1.7197 0.43449 1.0548 3.0526 1.0548 3.0525-1.7214 0.44371-1.726 0.44489 1.0575 3.0604 1.0575 3.0604-1.7277 0.45418-1.7323 0.45537 1.0604 3.0687 1.0603 3.0685 3.4544-0.92578 3.4362-0.92087-1.0547-3.0523-1.0547-3.0525 1.7141-0.45058 1.7096-0.44939 1.0519 3.0444 1.0519 3.0443-1.7068 0.45742-1.7113 0.45863 1.0547 3.0523 1.0547 3.0524 3.4125-0.9321 3.3946-0.92721-1.0491-3.0364-1.0491-3.0363 1.6934-0.45382 1.689-0.45264-1.0464-3.0283-1.0464-3.0285 1.6873-0.44352 1.6829-0.44239 1.0437 3.0206 1.0436 3.0204-1.6801 0.45028-1.6845 0.45144 1.0463 3.0283 1.0464 3.0284 3.3592-0.91754 3.3417-0.91275 1.0408 3.0125 1.0409 3.0125-3.3362 0.92849-3.3537 0.93333 2.0927 6.0566 2.0926 6.0565-1.6779 0.48437-1.6823 0.48564 1.049 3.0361 1.0491 3.0362-3.3724 0.99109-3.3902 0.99632-1.0546-3.0522-1.0546-3.0521 3.3958-0.98028 3.3779-0.97512-1.0491-3.0361-1.0491-3.0362-3.3835 0.95914-3.4014 0.96422-2.1093-6.1045-2.1093-6.1044-1.713 0.46789-1.7175 0.46913 1.0575 3.0603 1.0574 3.0603-1.7193 0.47847-1.7238 0.47975 1.0603 3.0685 1.0602 3.0684-1.7256 0.48917-1.7302 0.49046 1.0631 3.0766 1.0631 3.0764-1.7319 0.49994-1.7365 0.5013 1.0659 3.0846 1.066 3.0847 1.7337-0.50951 1.7291-0.50814 2.1261 6.1527 2.1261 6.1528-1.7234 0.52453-1.728 0.52591 1.0659 3.0846 1.0658 3.0844-1.7297 0.53557-1.7344 0.53699-1.0687-3.0927-1.0688-3.0928 1.7372-0.52874 1.7326-0.52733-2.1318-6.1692-2.1318-6.1691-1.7383 0.51086-1.743 0.51225 1.0688 3.0928 1.0688 3.0928-1.7448 0.52186-1.7494 0.52329 1.0717 3.1012 1.0716 3.101-1.7513 0.53302-1.756 0.53443 1.0745 3.1095 1.0745 3.1093-1.7578 0.54425-1.7625 0.5457-1.0774-3.1177-1.0774-3.1178-5.325 1.6207-5.3684 1.6339 1.0863 3.1432 1.0862 3.1431-1.7962 0.55613-1.8011 0.55767 1.0892 3.1516 1.0892 3.1517 1.7981-0.56624 1.7933-0.56468 1.0862 3.143 1.0862 3.143 1.7854-0.57167 1.7806-0.57015-2.1665-6.269-2.1666-6.2692 1.7817-0.55163 1.7768-0.55014 1.0803 3.1261 1.0803 3.1262 7.0479-2.2194 6.9726-2.1957 1.0687 3.0926 1.0687 3.0926 1.7286-0.5535 1.724-0.55203 1.0658 3.0845 1.0658 3.0843 3.4286-1.116 3.4104-1.1101-1.0601-3.068-1.0602-3.0681 1.7012-0.54472 1.6968-0.54329-1.0573-3.0599-1.0573-3.0599-3.4037 1.0718-3.4218 1.0775-1.063-3.0763-1.063-3.0762 1.716-0.53131 1.7114-0.52987-1.0602-3.0681-1.0602-3.0683 1.7097-0.52036 1.7052-0.51899-1.0574-3.06-1.0574-3.0602 1.7035-0.50952 1.699-0.5082 1.0546 3.0521 1.0546 3.052-1.6962 0.51624-1.7007 0.51762 2.1147 6.1201 2.1147 6.12 1.6951-0.53377 1.6906-0.53237-1.0546-3.052-1.0545-3.0519 1.689-0.52293 1.6845-0.52155-1.0518-3.0439-1.0518-3.044 1.6828-0.51219 1.6784-0.51084-1.049-3.036-1.049-3.0361 1.6768-0.50155 1.6724-0.50023 1.0463 3.0282 1.0462 3.028-1.6696 0.50816-1.674 0.50952 1.049 3.0361 1.049 3.0359-1.6757 0.51883-1.6801 0.52018 2.1035 6.0878 2.1034 6.0876-3.3623 1.0766-3.3801 1.0823 1.0573 3.06 1.0573 3.0598-1.694 0.55139-1.6984 0.55286 1.0601 3.068 1.0601 3.0679-3.4047 1.1264-3.4229 1.1324-1.0658-3.0842-1.0658-3.0844-1.7212 0.56024-1.7258 0.56176 2.1374 6.1851 2.1372 6.1849-3.4539 1.1612-3.4725 1.1674-1.0744-3.109-1.0744-3.1091 1.7415-0.57615 1.7368-0.5746-2.1431-6.2017-2.1431-6.2018-1.7426 0.55797-1.7473 0.55945 1.0745 3.1093 1.0744 3.1091-1.749 0.56934-1.7538 0.57086 1.0774 3.1176 1.0773 3.1175-1.7556 0.58082-1.7603 0.58238-1.0802-3.1259-1.0803-3.126 1.7633-0.57397 1.7585-0.57241-1.0773-3.1175-1.0774-3.1177-3.5276 1.1295-3.5467 1.1356 3.2497 9.4035 3.2495 9.403 1.7669-0.59402 1.7621-0.59242 1.0803 3.126 1.0802 3.1258-1.7592 0.60087-1.764 0.60249-1.0832-3.1342-1.0832-3.1344-5.3296 1.7918-5.3733 1.8064 1.0921 3.1601 1.0921 3.1599-1.7979 0.61408-1.8028 0.61576 1.0951 3.1686 1.0951 3.1687-1.8047 0.62614m-2.1932-6.3459 1.8078-0.61745-2.1902-6.3373-2.1902-6.3373 3.6128-1.1952 3.5931-1.1887-1.0891-3.1514-1.0892-3.1516 1.7922-0.58338 1.7873-0.58177-1.0862-3.1429-1.0862-3.1431-3.5854 1.148-3.605 1.1543 1.0922 3.1602 1.0921 3.1601-1.8069 0.58817-1.8119 0.58977 1.0952 3.1689 1.0951 3.1687-1.8138 0.60007-1.8188 0.60174-2.1964-6.355-2.1964-6.355-1.8299 0.58592-1.8349 0.58753-1.1012-3.1862-1.1012-3.1863-1.843 0.58036-1.8481 0.58196 2.2086 6.3901 2.2086 6.3901 1.842-0.59958 1.8369-0.59792 1.1012 3.1863 1.1012 3.1862 1.8288-0.60506 1.8238-0.60337 2.1963 6.3547 2.1963 6.3547 1.8127-0.61916m-15.353-44.424 1.8289-0.55663-1.0952-3.169-1.0953-3.1691-1.8319 0.54794-1.837 0.54947 1.0983 3.1778 1.0982 3.1776 1.8339-0.55817m25.157-7.6566 1.7607-0.53588-1.0745-3.1094-1.0746-3.1095 1.7589-0.52609 1.7541-0.52468-1.0716-3.1011-1.0716-3.1011 1.7523-0.51498 1.7476-0.51359-1.0688-3.093-1.0688-3.0929 1.7458-0.50397 1.7412-0.50264-1.0659-3.0846-1.066-3.0848 1.7394-0.49309 1.7348-0.49177-1.0631-3.0765-1.0632-3.0767 1.733-0.48229 1.7284-0.48102-2.1206-6.1368-2.1206-6.137-1.7341 0.46472-1.7387 0.46597 2.1263 6.1533 2.1262 6.1531-3.4799 0.96846-3.4985 0.97364 1.0689 3.0931 1.0688 3.093-1.7534 0.49705-1.7581 0.49837 1.0717 3.1013 1.0717 3.1012-1.7599 0.50804-1.7647 0.50941 2.1491 6.2191 2.149 6.2188-1.7636 0.52752-1.7684 0.52894 1.0775 3.1179 1.0774 3.1177 1.7654-0.53732m23.86-40.772 1.6834-0.4685-1.0463-3.0282-1.0463-3.0283-1.6862 0.46055-1.6906 0.46178 1.0491 3.0362 1.0491 3.0362 1.6879-0.46975m-22.099-20.723 1.7305-0.44607-1.0575-3.0605-1.0576-3.0606 1.7288-0.43681 1.7242-0.43564-1.0547-3.0524-1.0548-3.0526-1.727 0.42758-1.7316 0.42872 1.0576 3.0607 1.0575 3.0605-1.7334 0.43797-1.7379 0.43912 1.0604 3.0688 1.0603 3.0686 1.7351-0.44724m-6.3538-18.388 1.739-0.42176-1.0576-3.0608-1.0576-3.0606-1.7418 0.41365-1.7464 0.41474 1.0604 3.0688 1.0604 3.0689 1.7436-0.42287m-57.585 113.27-5.847 1.8412-2.2717-6.5718-2.2718-6.5719 1.961-0.59684 1.9554-0.59515-1.1326-3.2766-1.1327-3.2768 5.8429-1.7477 5.7937-1.7329-1.1231-3.2491-1.1231-3.2491-3.8634 1.1354-3.8852 1.1418-1.1295-3.2676-1.1295-3.2675 5.8292-1.6827 5.7802-1.6686 2.2399 6.4802 2.2398 6.48 3.814-1.1408 3.7927-1.1344 1.1137 3.2221 1.1136 3.2219-3.7865 1.1524-3.8077 1.1589 1.1199 3.24 1.1199 3.2399-3.8228 1.1836-3.8443 1.1903 1.1262 3.2581 1.1262 3.2582-5.7976 1.8256m1.6149-7.7443 1.9303-0.59764-1.1262-3.2581-1.1263-3.2583-1.9335 0.58845-1.9389 0.59012 1.1294 3.2675 1.1294 3.2673 1.9357-0.59934m5.4456-8.8695 1.9119-0.58188-1.1199-3.2399-1.12-3.2401-1.915 0.57281-1.9204 0.57441 1.1231 3.2492 1.123 3.249 1.9172-0.58351m14.457-18.545-1.8707 0.54976-1.1075-3.2043-1.1075-3.2042 1.8738-0.5409 1.8686-0.5394 1.1044 3.1953 1.1044 3.1955-1.8655 0.54823m29.806-63.202-1.7659 0.44619-3.2068-9.2799-3.2069-9.2802 1.7745-0.42141 1.7698-0.4203 3.1983 9.2555 3.1982 9.2552-1.7612 0.44499m42.273 201.48 1.7368-0.72703-1.0859-3.1422-1.0859-3.1421-1.7398 0.7185-1.7445 0.72045 1.0888 3.1506 1.0889 3.1507 1.7416-0.72901m43.674-18.282 1.6203-0.67823-1.0487-3.0351-1.0486-3.0349 1.6188-0.66853 1.6146-0.66677-1.0459-3.027-1.046-3.0272 1.6131-0.65713 1.6089-0.6554-1.0432-3.0192-1.0432-3.0193-4.8475 1.9477-4.8858 1.963-1.0515-3.043-1.0515-3.0431-1.64 0.64978-1.6443 0.6515 1.0543 3.0511 1.0543 3.0511-3.296 1.3243-3.3135 1.3313 1.0599 3.0674 1.0598 3.0672 1.6561-0.67466 1.6518-0.67288 1.0571 3.0592 1.057 3.059 1.6446-0.67917 1.6402-0.67738-1.0542-3.051-1.0543-3.0511 3.2731-1.3334 3.2559-1.3264 1.0487 3.0351 1.0487 3.035-1.6231 0.67027-1.6273 0.67204 1.0514 3.0429 1.0515 3.043 1.6245-0.68005m-83.903 20.312 1.8415-0.75018-1.1164-3.2298-1.1164-3.23 1.8395-0.73911 1.8344-0.73702-1.1133-3.2209-1.1133-3.2209-1.8375 0.72807-1.8427 0.73009 1.1164 3.2299 1.1164 3.2299-1.8447 0.74115-1.8498 0.74324 1.1196 3.239 1.1195 3.2389 1.8467-0.7523m39.36-16.034 1.7333-0.70609-1.083-3.1336-1.083-3.1338-1.7363 0.6976-1.741 0.69952 1.086 3.1423 1.0859 3.1421 1.738-0.70804m56.411-22.98 1.584-0.64525-2.0701-5.9916-2.0701-5.9916-1.5894 0.62972-1.5935 0.63137 2.0755 6.0072 2.0755 6.0072 1.5881-0.64694m-13.769-8.1858 4.8304-1.9139-3.1215-9.0345-3.1216-9.0348-4.8551 1.8431-4.8932 1.8576 3.1463 9.1059 3.1462 9.1056 4.8685-1.929m-2.0892-6.0466-1.6213 0.63341-1.046-3.0272-1.046-3.0274 1.6241-0.62548 1.6198-0.62386 1.0433 3.0195 1.0432 3.0193-1.6171 0.63173m9.6396-3.7659 1.592-0.62195-1.0351-2.9959-1.0351-2.996 1.5906-0.6126 1.5865-0.61104-1.0324-2.9882-1.0324-2.9884 1.5851-0.60174 1.581-0.6002-1.0298-2.9805-1.0298-2.9806-1.5837 0.59251-1.5878 0.59402 1.0324 2.9883 1.0324 2.9882-3.1825 1.2082-3.199 1.2144 2.0756 6.0076 2.0756 6.0075 1.5962-0.62358m-39.116-5.6912 1.6864-0.63095-1.0628-3.0758-1.0628-3.0757-1.6893 0.62278-1.6938 0.6244 1.0656 3.0839 1.0657 3.084 1.6909-0.63263m-109.2-119.46 1.9187-0.49458-1.1138-3.2225-1.1138-3.2224-1.9218 0.48558-1.9272 0.48694 1.1169 3.2314 1.117 3.2315 1.9241-0.49594m-2.8416-20.296 1.9174-0.46501-1.1108-3.2137-1.1108-3.2136-1.9205 0.45607-1.9258 0.45736 1.1138 3.2226 1.1139 3.2227 1.9227-0.46631m-12.774-24.884 1.9406-0.43168-1.114-3.2229-1.1139-3.2228 1.9383-0.4215 1.9329-0.42033-1.1108-3.2139-1.1109-3.214-1.936 0.4114-1.9414 0.41254 1.114 3.223 1.1139 3.2228-1.9437 0.42268-1.9491 0.42386 1.117 3.2318 1.1171 3.2319 1.946-0.43288m115.9 189.09-3.4515 1.3484-1.08-3.1253-1.0801-3.1255 3.4574-1.3316 3.4388-1.3244 1.0743 3.1087 1.0742 3.1085-3.433 1.3412m-83.135 17.457-1.9487 0.73978-1.1454-3.3133-1.1454-3.3134 1.952-0.73031 1.9464-0.72822 1.1421 3.3039 1.1421 3.3039-1.9431 0.73767m-8.4914-11.791-1.9665 0.72499-1.1488-3.323-1.1488-3.3231 1.9698-0.71545 1.9642-0.7134 1.1455 3.3136 1.1454 3.3134-1.9609 0.72291m1.2972-15.379-3.9182 1.4018-1.1455-3.3137-1.1455-3.3136-1.9708 0.6944-1.9765 0.69638-1.1489-3.3233-1.1488-3.3232 3.9539-1.3718 3.9313-1.3639-1.1423-3.3044-1.1423-3.3042 1.9605-0.66964 1.955-0.6677 3.417 9.8846 3.4169 9.8845-3.8958 1.3938m130.27-53.314-1.5985 0.56323-1.0326-2.9886-1.0325-2.9885 1.6012-0.5555 1.597-0.55408-4.1195-11.924-4.1196-11.924 1.6036-0.52197 1.5994-0.52063 4.109 11.893 4.1089 11.893-1.5888 0.55122-1.5929 0.55264 1.0298 2.9808 1.0299 2.9809-1.5944 0.56176m-173.41-65.124-2.0212 0.53131-1.1459-3.3146-1.1459-3.3146 2.0245-0.52184 2.0187-0.52034 1.1426 3.3052 1.1426 3.3051-2.0154 0.52981m-1.0743-28.44-14.2 3.444-8.0451-23.272-8.0455-23.273 14.362-2.9807 14.078-2.9219 7.886 22.814 7.8856 22.813-13.92 3.3761m-2.2755-6.5827 9.9874-2.3718-5.6486-16.341-5.6488-16.342-10.068 2.1394-10.212 2.1701 5.7302 16.576 5.73 16.575 10.13-2.4058m-2.2756-6.5828-6.0707 1.4112-3.4281-9.9167-3.4282-9.917 6.1001-1.3265 6.0483-1.3153 3.3989 9.8327 3.3988 9.8325-6.0191 1.3992m129.08-17.036-11.795 2.8607-7.3254-21.201-7.3258-21.202 11.929-2.4758 11.714-2.4313 7.1933 20.821 7.1929 20.82-11.583 2.8092m-2.0738-6.0024 8.3084-1.9731-5.1512-14.91-5.1513-14.91-8.3756 1.7798-8.4849 1.803 5.2189 15.105 5.2187 15.104 8.4169-1.9989m-2.0739-6.0025-5.0451 1.1728-3.1231-9.039-3.1231-9.0392 5.0696-1.1024 5.0302-1.0939 3.0988 8.9692 3.0987 8.9689-5.006 1.1636m-56.606-0.336-1.8219 0.40527-1.0807-3.1271-1.0806-3.127 1.8248-0.39683 1.8199-0.39575-2.1555-6.2374-2.1555-6.2374 3.6368-0.7548 3.6172-0.75075 1.072 3.102 1.0719 3.1019-1.8033 0.3832-1.8082 0.38423 1.0749 3.1104 1.0748 3.1102-1.8101 0.39362-1.815 0.3947 1.0777 3.1186 1.0777 3.1187-1.817 0.40417m31.229-20.045-1.7328 0.36823-1.0521-3.0448-1.0521-3.0449 1.7356-0.36024 1.7311-0.35927 1.0493 3.0369 1.0493 3.0368-1.7283 0.36726"/>
  </g>
  <path transform="matrix(.13565 0 0 .13565 -169.9 1037.5)" d="m3204.6-2558-262.78 23.031-58.719 255.94 548.47 1651.3c27.433 82.02 68.758 125.3 152.16 96.812l459.72-309.28c70.319-43.011 59.387-112.88 42.566-184.85l-287.12-740.3-594.29-792.62z" fill="url(#b)" filter="url(#f)" opacity=".7059"/>
  <g transform="matrix(.13565 0 0 .13565 526.79 1034.3)" font-family="Eras Bold ITC" font-size="225.16">
   <path d="m-1976.5-2420.5 127.1-11.847c7.6401-0.7121 15.201 4.7289 16.952 12.2l1.4458 9.0466c1.7514 7.4707-2.9894 14.772-10.63 15.485l-125.67 14.347c-7.6401 0.7122-15.201-4.7288-16.952-12.2l-2.8743-12.261c-1.7514-7.4706 2.9893-14.058 10.629-14.77z" fill="#4c4c4c" opacity=".7914"/>
   <path d="m-1977.3-2420.6 4.6609-0.011s-1.6991 5.8077 2.4999 7.8305c4.7487 2.2877 106.75-8.808 106.75-8.808 7.0835-0.5532 14.447-2.6881 21.074 3.048 5.1539 4.4609 4.9119 13.813 4.9119 13.813 1.6237 5.8033-0.6287 9.3324-7.7122 9.8856l-123.65 13.645c-7.0835 0.5532-13.2-4.3876-14.824-10.191l-3.5577-14.524c-1.6238-5.8032 2.7715-14.135 9.855-14.688z"/>
   <path d="m-1847.8-2409.3c-43.181 3.0307-86.429 14.167-129.66 9.1793-3.4748-3.9745-0.4304 5.3031-0.037 7.6907 0.3987 5.9788 3.7087 11.515 8.7444 9.7158 29.912-5.1943 60.291-6.8749 90.354-11.214 12.304-1.673 24.936-3.2708 36.999-5.9095-0.3299-4.5063-2.0115-10.443-6.3956-9.4618z" fill="#1c1c1c" opacity=".7914"/>
  </g>
  <path transform="matrix(.14203 -.00828 .00828 .14203 380.85 1037)" d="m-145.71-806.21c0 59.962-35.817 108.57-80 108.57s-80-48.609-80-108.57 35.817-108.57 80-108.57 80 48.609 80 108.57z" fill="#1a1a1a"/>
  <path transform="matrix(.87713,-.48026,.33794,.94117,0,0)" d="m7.521 982.42h3.2478a2.0635 2.0635 0 0 1 2.0635 2.0635v5.3408a2.0635 2.0635 0 0 1 -2.0635 2.0635h-3.2478a2.0635 2.0635 0 0 1 -2.0635 -2.0635v-5.3408a2.0635 2.0635 0 0 1 2.0635 -2.0635" fill="#fff" opacity=".6791"/>
  <path transform="matrix(.13189 -.00769 .00769 .13189 377.99 1028.9)" d="m-145.71-806.21c0 59.962-35.817 108.57-80 108.57s-80-48.609-80-108.57 35.817-108.57 80-108.57 80 48.609 80 108.57z" fill="#4b4b4b" opacity=".6791"/>
  <path transform="matrix(.87713,-.48026,.33794,.94117,0,0)" d="m7.7295 983.02h2.8308a1.7985 1.7985 0 0 1 1.7985 1.7985v4.6549a1.7985 1.7985 0 0 1 -1.7985 1.7985h-2.8308a1.7985 1.7985 0 0 1 -1.7985 -1.7985v-4.6549a1.7985 1.7985 0 0 1 1.7985 -1.7985" fill="#4e4e4e"/>
  <path d="m217.36 693.35c-13.271 1.5661-15.173 11.642-13.016 20.834l4.6991 15.458 33.811 98.387c21.822 61.721-32.858-96.091-33.479-98.471-1.6799-6.4294-3.8398-15.979 0.17392-22.621-0.44337-2.6253-0.39797-2.6294 0.86937-6.5392 1.5048-3.6525 8.588-7.9489 8.588-7.9489l-1.6459 0.90034z" opacity=".8503"/>
  <path d="m317.31 975.47c-11.528 6.7588-27.021 0.54907-32.143-8.3016-2.5307-4.3736-5.2124-13.08-5.2124-13.08l-4.5718-13.462 2.278-2.7515-26.847-86.052c-19.839-62.387 31.777 96.454 32.717 98.727 0.92444 2.2352 2.0476 4.8383 3.4499 7.3841 0.26261 0.47672-5.0591-16.334-4.6761-15.942 0.88887 0.9107 0.96334 0.68422 2.6598 2.2268 2.8151 7.5143 10.207 24.143 15.328 25.512 6.3736 1.7038 9.7303 2.1292 14.901 0.50737 1.0812-0.33909 49.258-34.185 50.451-34.7l4.3068 1.9204c-11.194 8.0357-41.615 30.143-52.641 38.011z" fill="url(#e)" opacity=".9626"/>
  <path transform="matrix(.94845,-.31691,.01381,.9999,0,0)" d="m262.71 922.82h89.07v3.6341h-89.07z" fill="none" opacity=".4155" stroke="#ff0200" stroke-linecap="round" stroke-linejoin="round" stroke-width="3.7213"/>
 </g>
</svg>
